<svg width="35" height="25" viewBox="0 0 35 25" xmlns="http://www.w3.org/2000/svg"><title>diners-club</title><g fill="none" fill-rule="evenodd"><rect fill="#2183CB" width="35" height="25" rx="3.316"/><path d="M18.772 19.777h-2.561c-3.873-.064-6.997-3.29-6.997-7.213-.125-3.923 2.874-7.213 6.685-7.34h2.873c3.998-.062 7.247 3.227 7.31 7.277v.063c-.126 3.986-3.312 7.213-7.31 7.213zM16.398 6.49c-3.248 0-5.934 2.72-5.934 6.01 0 3.29 2.686 6.011 5.934 6.011 3.249 0 5.935-2.72 5.935-6.01 0-3.29-2.686-6.01-5.935-6.01zm.937 10.06V8.515c2.187.57 3.561 2.784 2.999 4.998-.375 1.518-1.5 2.657-2.999 3.037zm-1.874 0c-2.186-.57-3.498-2.847-2.936-5.062a4.135 4.135 0 0 1 2.936-2.973v8.035z" fill="#FFF"/></g></svg>