<svg width="35" height="25" viewBox="0 0 35 25" xmlns="http://www.w3.org/2000/svg"><title>mastercard</title><g fill="none" fill-rule="evenodd"><rect fill="#353A48" width="35" height="25" rx="3.316"/><path d="M17.684 7.373a6.738 6.738 0 0 0-4.42-1.649c-3.765 0-6.817 3.09-6.817 6.903 0 3.812 3.052 6.903 6.816 6.903a6.73 6.73 0 0 0 4.421-1.65 6.738 6.738 0 0 0 4.421 1.65c3.765 0 6.816-3.09 6.816-6.903 0-3.812-3.051-6.903-6.816-6.903-1.687 0-3.23.62-4.42 1.649z" fill="#FF5E00"/><path d="M17.684 7.373a6.738 6.738 0 0 0-4.42-1.649c-3.765 0-6.817 3.09-6.817 6.903 0 3.812 3.052 6.903 6.816 6.903a6.73 6.73 0 0 0 4.421-1.65 6.924 6.924 0 0 1-2.395-5.253c0-2.104.93-3.988 2.395-5.254z" fill="#ED0006"/><path d="M17.684 17.88a6.738 6.738 0 0 0 4.421 1.65c3.765 0 6.816-3.09 6.816-6.903 0-3.812-3.051-6.903-6.816-6.903-1.687 0-3.23.62-4.42 1.649a6.924 6.924 0 0 1 2.394 5.254c0 2.104-.93 3.988-2.395 5.254z" fill="#F9A000"/></g></svg>