<svg width="13" height="10" viewBox="0 0 13 10" xmlns="http://www.w3.org/2000/svg"><title>Artboard</title><path d="M8.625 5.46l-1.898 1.5c-.188.157-.383.157-.586 0l-1.875-1.5c-.188-.155-.383-.155-.586 0L.445 8.04v.21c0 .172.075.34.223.504A.689.689 0 0 0 1.195 9h10.5a.689.689 0 0 0 .528-.246c.148-.164.222-.332.222-.504v-.21L9.211 5.46c-.203-.155-.398-.155-.586 0zm1.64-.843l1.9 1.5c.077.063.144.078.198.047.055-.031.082-.094.082-.187V2.766c0-.094-.027-.157-.082-.188-.054-.031-.129-.015-.222.047l-1.875 1.523a.278.278 0 0 0-.118.223c0 .086.04.168.118.246zM1.196 0a.689.689 0 0 0-.527.246C.52.41.445.578.445.75l5.672 4.523c.203.157.399.157.586 0L12.445.75c0-.172-.074-.34-.222-.504A.689.689 0 0 0 11.695 0h-10.5zm-.75 2.766v3.21c0 .094.028.157.082.188.055.031.13.016.223-.047l1.875-1.5a.347.347 0 0 0 .117-.246.28.28 0 0 0-.117-.223L.75 2.625c-.094-.063-.168-.078-.223-.047-.054.031-.082.094-.082.188z" fill="#FFF"/></svg>