<svg xmlns="http://www.w3.org/2000/svg" width="120" height="81" viewBox="0 0 120 81"><path fill="#2F2F2F" fill-rule="evenodd" d="M94.132 72.657c-.08.081 1.692 2.348-1.801-.924-.248-.28-8.53-9.12-16.701-18.05.563-.096 1.112-.186 1.652-.274 7.489 8.58 15.92 18.226 16.85 19.248zm-2.443 4.085L70.937 54.505c.933-.17 1.85-.334 2.744-.49a4607.706 4607.706 0 0 0 19.807 21.297c0 .003.662 2.697-1.799 1.43zM58.626 55.886c-20.911 5.081-32.129 3.836-41.383 2.151l.481-13.039c4.297.525 17.947 4.324 41.13-2.02 23.184-6.343 43.942-5.455 43.942-5.455l-.48 12.979c-21.541-1.04-43.69 5.384-43.69 5.384zm-23.854 17.78s-3.605 4.165-3.848 2.99c-.243-1.174 3.848-6.456 3.848-6.456l8.506-10.32c.958-.105 1.915-.221 2.869-.35L34.772 73.667zM16.38 44.338l-.274 7.434-10.863 3.382 2.565-6.74-6.124-2.352c14.755-9.025 28.205-5.496 28.205-5.496-3.847 1.566-5.836 1.25-9.634 1.475-3.798.226-3.875 2.297-3.875 2.297zm87.116 7l.293-7.92c3.702-.474 10.652-3.39 10.652-3.39l-2.254 6.872 5.6 2.281c-13.473 8.533-28.01 5.922-28.01 5.922s1.517-1.164 7.537-1.674c6.019-.51 6.182-2.09 6.182-2.09zM85.683 6.736c-.427-.47-.91-.847-1.3-1.367-.293-.39-.479-.941-.712-1.42l.179-.213c.875.992 1.74 2.005 2.628 2.972.918 1 1.858 1.955 2.788 2.93l.114-.226c-1.205-1.535-3.33-3.73-4.675-5.444 2.293 1.781 4.491 3.103 9.677 9.417-.576-.086-1.09.036-1.492-.256-2.514-1.817-4.94-3.895-7.207-6.393zM60.544 37.129c-5.787-7.088-9.886-12.656-9.922-12.728.425.287 1.543 1.334 2.913 2.691l6.415 6.713a34.087 34.087 0 0 1 1.43 1.68c.081.107.166.212.25.316l-1.086 1.328zm-2.595 3.174L47.075 27.798s1.533-1.555 1.443-1.8c0 0 5.67 6.22 10.954 12.442l-1.523 1.863zM40.304 30c-.955.864-1.815 1.836-2.775 2.695-1.027.919-2.12 1.761-3.184 2.636-.51-1.217-.728-1.04-.51-1.217 2.586-2.1 6.482-5.81 7.792-6.977 2.118-1.885 1.47-1.33 3.547-3.258 1.353-1.256 3.02-2.611 3.416-3.412.025-.052.016-.436.016-.436-5.67 3.575-10.425 9.2-15.001 13.852l-.931-1.136c-.198-.3-.41-.602-.633-.908.99-.9 1.97-1.766 2.92-2.663a639.755 639.755 0 0 0 6.607-6.3c.344-.333.632-.726.92-1.12-1.262.774-2.56 1.505-3.726 2.4-1.313 1.01-2.463 2.225-3.674 3.36-1.17 1.097-2.565 2.34-3.724 3.434a29.912 29.912 0 0 0-1.31-1.536c-1.467-1.607-2.975-2.913-4.316-3.808-.088-.092-.177-.179-.265-.272 3.199-2.58 6.665-5.765 9.282-9.211-.825.543-1.735.99-2.459 1.646-2.118 1.922-4.166 3.922-6.232 5.902-.3.288-.674.742-1.032 1.163-.306-.165-1.032-.562-1.67-.905.719-.745 1.695-1.483 2.421-2.136 1.493-1.344 3.035-2.632 4.547-3.954.66-.577 1.27-1.213 1.953-1.76.21-.167.585-.137.888-.18.314-.044.732.05.935-.12.504-.418 1.005-.84 1.502-1.268l.008-.005.006-.007a47.913 47.913 0 0 0 2.166-1.966c.618-.6 1.245-1.281 1.565-2.089.828-2.093 2.737-3.097 4.144-4.594 1.454-1.547 3.123-2.882 4.707-4.3.445-.397.946-.618 1.651-.331.681.277 1.384.468 1.908.64-3.039 2.615-6.09 5.236-9.127 7.876-.107.094-.056.372-.09.655 1.484-.61 2.433-1.763 3.57-2.676 1.164-.934 2.407-1.77 3.564-2.711 1.105-.898 1.935-2.155 3.37-2.605l.181.217c-.835.843-1.638 1.722-2.511 2.523-3.775 3.465-7.575 6.9-11.352 10.363-.68.623-1.299 1.314-1.938 1.982-.574.599-1.301 1.081-1.217 2.234 1.28-1.202 2.55-2.415 3.843-3.602a1085.28 1085.28 0 0 1 7.784-7.087c2.04-1.834 4.12-3.62 6.162-5.45.373-.334.672-.306 1.087.072 1.743 1.587 3.345 3.287 4.405 5.41.272.544.432 1.132.644 1.7.446.568.444 1.05-.024 1.48-1.53 1.403-3.045 2.822-4.573 4.227-1.863 1.712-3.72 3.43-5.605 5.117-1.152 1.03-2.365 1.99-3.527 3.007A494.109 494.109 0 0 0 40.304 30zm48.228 21.762l-.134 3.656C103.886 60.748 120 49.14 120 49.14l-6.419-2.922 2.395-7.843c-4.062 1.68-12.366 4.18-12.366 4.18l.23-6.214c-8.439-.793-22.32.39-35.629 2.93l22.081-25.635c2.474 1.377 4.592 1.569 5.264.266.916-1.777-1.207-5.657-4.741-8.665-3.535-3.008-7.142-4.005-8.059-2.228-.579 1.123.057 3.084 1.492 5.134L62.96 34.176 51.844 21.512l.01.035-.067-.08c1.291-1.172 2.506-2.286 3.747-3.35 2.01-1.726 4.073-3.394 6.095-5.106.163-.138.163-.138.255-.66.109-.624-.388-1.302-.614-1.947-.936-2.672-2.623-4.873-4.698-6.826-.545-.512-1.038-1.19-1.656-1.491-1.494-.725-3.05-1.267-4.578-1.891-.935-.383-1.741-.172-2.37.35-1.592 1.326-3.134 2.71-4.668 4.104-1.383 1.257-2.731 2.552-4.083 3.843-.305.292-.602.357-1.04.086-.675-.418-1.214-.296-1.708.195l-3.018 2.91-1.025.975c-.467.444-.653.988-.542 1.713.044.29-.007.68-.18.854-.759.774-1.565 1.499-2.376 2.216-1.745 1.542-3.474 3.103-5.27 4.585-.67.554-2.21 1.965-2.606 2.588l-.002.001s-1.596 2.025 3.989 8.392l.047.055.016.019s.391.48 1.032 1.128c1.834 1.856 5.726 5.109 8.443 2.539.944-.917 1.92-1.8 2.872-2.71a757.139 757.139 0 0 0 5.345-5.14l.552-.475c1.721 1.772 11.251 11.594 12.832 13.463l28.473-32.69c.262.318 1.19 1.258 1.19 1.258l-24.97 30.282c-.932.216-3.78.921-4.693 1.15-15.282 3.762-25.274 3.125-25.274 3.125l.19-5.119C13.023 35.428 0 46.052 0 46.052a52.418 52.418 0 0 1 6.007 2.662l-2.842 8.56c4.816-2.141 12.996-4.158 12.996-4.158l-.207 5.606c2.953 1.904 14.27 2.438 25.86 1.31l-9.568 11.7s-4.413 6.507-3.356 9.205c2.42.774 8.437-5.81 8.437-5.81L51.5 58.671a79.427 79.427 0 0 0 4.707-1.026c3.887-.98 7.966-1.851 11.868-2.604L91.757 81c5.89-3.08 5.89-7.303 5.89-7.303L79.524 53.051c5.36-.84 9.007-1.289 9.007-1.289zM57 8.002C55.517 7.861 44.747 18.536 44 20c1.303-.673 12.728-11.218 13-11.999M77 52l.004.005-.003-.004L77 52m-21.447-6.724v.033a1028.88 1028.88 0 0 1-2.031 4.605c-.668-1.302-1.333-2.603-1.995-3.904l-1.45.25L50 55c.487-.078.974-.158 1.461-.239l.043-5.7c.496.973.993 1.945 1.491 2.917l1.03-.18c.507-1.141 1.012-2.285 1.516-3.43l-.022 5.687c.486-.087.972-.176 1.458-.265L57 45a343.363 343.363 0 0 1-1.447.276M57 45.044l.017-.044a.217.217 0 0 1-.017.004v.04M82.822 41l-.014.002a153.48 153.48 0 0 0-1.424.201v.034c-.627 1.54-1.257 3.08-1.89 4.623l-2.07-4.032c-.474.08-.949.16-1.424.244L76.137 51c.479-.08.958-.157 1.437-.234l-.097-5.82 1.547 3.007 1.014-.153 1.41-3.439c.038 1.936.078 3.872.117 5.807.478-.065.957-.129 1.435-.19l-.192-8.942.014-.036m3.24 4.968c.1-.612.198-1.224.296-1.836l.386 1.765-.681.071zm-.632-4.782c-.473 2.939-.95 5.877-1.43 8.814.48-.057.96-.111 1.439-.163l.412-2.54c.391-.042.784-.083 1.175-.121l.535 2.447c.48-.045.96-.087 1.439-.126-.625-2.84-1.245-5.672-1.86-8.497-.57.058-1.14.12-1.71.186zm-14.925 9.176l-.023-2.456c.973-.188 1.946-.373 2.92-.554l-.018-1.37c-.97.183-1.943.369-2.915.558l-.023-2.502c1.153-.228 2.306-.451 3.458-.668L73.887 42c-1.628.308-3.257.63-4.887.958L69.074 52A412.84 412.84 0 0 1 74 51.08l-.017-1.367c-1.159.21-2.318.427-3.478.649M31 57c1.605-.038 3.212-.117 4.818-.232l.028-1.32c-1.135.083-2.27.147-3.403.192l.056-2.37c.953-.04 1.906-.094 2.86-.16l.027-1.323c-.952.067-1.904.123-2.856.164l.057-2.416c1.129-.052 2.257-.123 3.386-.212L36 48c-1.594.128-3.189.22-4.782.27L31 57m28.161-8.072l.34-1.81.341 1.684-.68.126zm-.515-4.602C58.102 47.222 57.553 50.113 57 53c.48-.086.96-.171 1.439-.258l.474-2.503 1.175-.217.475 2.333L62 52.091c-.553-2.7-1.101-5.398-1.645-8.091l-1.71.326zm7.732 6.645l-1.825.364-.028-6.382 1.815-.373.111.118.037 6.135-.11.138zM67.33 43c-1.442.297-2.886.597-4.33.896L63.028 53c1.456-.288 2.91-.577 4.365-.863l.607-.775-.058-7.773L67.33 43zm-29.7 5c-.483.047-.966.09-1.448.132L36 57c1.66-.126 3.32-.288 4.979-.48L41 55.18c-1.172.136-2.344.258-3.516.363L37.63 48m54.714-7.936l.155 5.127-2.12-4.997c-.46.034-.92.07-1.379.111L89.236 49c.464-.037.927-.07 1.391-.101l-.145-5.119 2.126 5.007c.464-.022.928-.04 1.392-.054L93.725 40c-.46.018-.921.04-1.381.064M42 56c.479-.055.958-.112 1.437-.171l.052-3.517c.97-.124 1.937-.255 2.906-.395l.015-1.262c-.967.14-1.934.274-2.902.398l.034-2.305c1.149-.15 2.296-.313 3.444-.485L47 47c-1.62.246-3.242.471-4.865.67L42 56m-15.166-8l-.614.605-.113 3.49c.142.155.285.31.428.463.937.028 1.874.04 2.811.039l.108.101-.058 1.985-.115.119c-.553 0-1.107-.006-1.66-.016l-.104-.12c.01-.352.022-.703.033-1.054a85.501 85.501 0 0 1-1.491-.04L26 55.369c.193.197.386.393.58.588a92.9 92.9 0 0 0 3.62.04l.61-.577.099-3.521-.552-.475a92.09 92.09 0 0 1-2.628-.003 26.04 26.04 0 0 1-.108-.1l.062-1.984.114-.117c.55.007 1.101.01 1.652.007l.104.118-.031 1.055c.476-.002.952-.008 1.429-.017L31 48.625l-.573-.613c-1.198.02-2.396.016-3.593-.012"/></svg>