<svg width="24" height="24" viewBox="0 0 24 24" xmlns="http://www.w3.org/2000/svg"><title>Icons/White/Podcast</title><g transform="translate(2)" fill="#FFF"><path d="M10 3c-3.86 0-7 3.141-7 7a6.98 6.98 0 0 0 1.063 3.711.5.5 0 1 0 .847-.531A6.006 6.006 0 0 1 10 4c3.309 0 6 2.691 6 6a5.976 5.976 0 0 1-.92 3.193.5.5 0 0 0 .845.533A6.973 6.973 0 0 0 17 10c0-3.859-3.14-7-7-7z"/><path d="M10 0C4.486 0 0 4.486 0 10a9.97 9.97 0 0 0 2.635 6.764.5.5 0 1 0 .736-.676A8.976 8.976 0 0 1 1 10c0-4.963 4.038-9 9-9s9 4.037 9 9c0 2.248-.833 4.4-2.346 6.062a.5.5 0 1 0 .739.673A9.98 9.98 0 0 0 20 10c0-5.514-4.486-10-10-10z"/><path d="M11.266 13H8.735c-.709 0-1.388.303-1.863.832a2.51 2.51 0 0 0-.622 1.944l.557 5A2.494 2.494 0 0 0 9.29 23h1.42a2.496 2.496 0 0 0 2.484-2.224l.556-4.999A2.503 2.503 0 0 0 11.266 13z"/><ellipse cx="10" cy="9.042" rx="3" ry="3"/></g></svg>