<svg xmlns="http://www.w3.org/2000/svg" width="624" height="376" viewBox="0 0 624 376" xmlns:xlink="http://www.w3.org/1999/xlink"><defs><path id="a" d="M0 0h624v376H0z"/></defs><g fill="none" fill-rule="evenodd"><mask id="b" fill="#fff"><use xlink:href="#a"/></mask><path fill="#FFF" fill-rule="nonzero" d="M579.904 301.748l-.773 23.938C680.633 360.693 786 284.501 786 284.501l-41.992-19.048 15.715-51.223c-26.535 11.068-80.893 27.285-80.893 27.285l1.546-40.67c-55.389-5.149-146.071 2.574-233.405 19.305L591.497 52.321c16.23 9.01 30.141 10.297 34.52 1.802 5.926-11.583-7.986-37.066-31.171-56.629-23.186-19.563-46.887-26.255-52.813-14.672-3.864 7.465.258 20.078 9.79 33.72L412.45 186.945l-72.649-83.142v.257l-.515-.515c8.502-7.722 16.488-14.93 24.474-21.88 13.14-11.325 26.793-22.135 39.931-33.461 1.03-1.03 1.03-1.03 1.546-4.376.773-4.118-2.576-8.494-4.122-12.613-6.183-17.503-17.26-31.918-30.657-44.788-3.606-3.347-6.698-7.723-10.82-9.782-9.79-4.633-20.094-8.237-29.884-12.355-6.183-2.574-11.335-1.03-15.457 2.316a1519.765 1519.765 0 0 0-30.657 26.77c-9.017 8.238-17.776 16.732-26.792 25.226-2.061 1.802-3.865 2.317-6.699.515-4.38-2.831-7.986-2.06-11.077 1.287l-19.837 19.048c-2.319 2.06-4.38 4.376-6.698 6.435-3.092 2.832-4.38 6.435-3.607 11.326.258 1.802 0 4.376-1.288 5.663-4.895 5.148-10.305 9.781-15.457 14.415-11.335 10.039-22.67 20.335-34.521 30.116-4.38 3.604-14.427 12.87-17.003 16.989 0 0-10.563 13.128 26.02 54.827l.257.258s2.576 3.089 6.698 7.465c12.108 12.098 37.613 33.462 55.389 16.731 6.182-5.92 12.623-11.84 18.806-17.761 11.593-11.068 23.443-22.394 35.036-33.72l3.607-3.089c11.335 11.583 73.68 75.935 83.984 88.033L556.975 23.235c1.804 2.059 7.729 8.237 7.729 8.237L401.115 229.674c-6.183 1.287-24.732 5.92-30.657 7.465-99.957 24.71-165.392 20.335-165.392 20.335l1.288-33.463C85.53 194.667 0 264.424 0 264.424c21.64 7.98 39.416 17.503 39.416 17.503l-18.549 56.115c31.43-13.9 85.015-27.285 85.015-27.285l-1.288 36.809c19.321 12.355 93.516 15.959 169.257 8.494l-62.602 76.192s-28.854 42.472-21.898 60.233c15.715 5.148 55.13-38.096 55.13-38.096l92.744-107.595c10.563-2.06 20.867-4.119 30.915-6.693 25.504-6.435 52.039-12.098 77.801-16.989l120.051 131.535L601.03 493c38.643-20.078 38.643-47.877 38.643-47.877L520.909 309.985c35.036-5.406 58.995-8.237 58.995-8.237zM264.06 159.145c-6.183 5.663-11.85 12.098-18.291 17.76-6.698 5.921-13.912 11.584-20.867 17.247-3.35-7.98-4.895-6.693-3.35-7.98 17.004-13.642 42.508-38.096 51.01-45.56 13.91-12.356 9.531-8.752 23.185-21.365 8.76-8.237 19.837-16.989 22.413-22.394.258-.258 0-2.832 0-2.832-37.097 23.424-68.27 60.233-98.153 90.607-2.061-2.574-4.122-5.148-6.183-7.465-1.288-2.059-2.576-3.86-4.122-5.92 6.44-5.92 12.881-11.583 19.064-17.504 14.427-13.642 28.853-27.285 43.28-41.185 2.319-2.059 4.122-4.633 5.925-7.207-8.243 5.148-16.745 9.781-24.473 15.702-8.502 6.692-16.23 14.672-23.96 21.88-7.728 7.207-16.745 15.186-24.473 22.394a146.729 146.729 0 0 0-8.502-10.04c-9.532-10.553-19.579-19.047-28.338-24.968-.515-.514-1.03-1.287-1.803-1.801 20.867-16.99 43.538-37.84 60.798-60.233-5.41 3.603-11.335 6.435-15.972 10.81-13.912 12.614-27.308 25.741-40.704 38.611-2.061 1.802-4.38 4.891-6.698 7.723-2.061-1.03-6.699-3.604-10.82-5.92 4.637-4.891 11.077-9.782 15.972-13.9 9.79-8.752 19.837-17.247 29.884-25.999 4.38-3.86 8.244-7.98 12.881-11.583 1.288-1.03 3.864-.772 5.925-1.287 2.061-.257 4.895.258 6.183-.772 3.35-2.832 6.698-5.406 9.79-8.237 4.895-4.119 9.532-8.494 14.169-12.87 4.122-3.861 8.244-8.495 10.305-13.643 5.41-13.642 18.033-20.335 27.05-30.116 9.532-10.04 20.352-18.79 30.914-28.058 2.834-2.574 6.183-4.118 10.82-2.059 4.38 1.802 9.017 3.09 12.624 4.119-19.837 16.988-39.931 34.235-59.768 51.48-.773.516-.258 2.318-.515 4.377 9.79-4.119 15.972-11.583 23.443-17.504 7.729-6.178 15.715-11.583 23.443-17.76 7.214-5.921 12.624-14.158 22.156-16.99.515.515.773 1.03 1.288 1.545-5.41 5.405-10.82 11.326-16.488 16.474-24.731 22.652-49.72 45.046-74.452 67.698-4.38 4.118-8.502 8.494-12.623 12.87-3.865 3.86-8.502 6.95-7.987 14.672 8.502-7.98 16.746-15.702 25.247-23.681 17.003-15.445 34.006-31.147 51.009-46.333 13.396-12.099 27.05-23.682 40.446-35.78 2.319-2.06 4.38-2.06 7.214.515 11.335 10.296 21.897 21.622 28.853 35.522 1.804 3.604 2.834 7.465 4.122 11.068 2.834 3.604 2.834 6.95-.257 9.782-10.048 9.266-19.837 18.533-29.884 27.542-12.109 11.326-24.474 22.395-36.583 33.463-7.47 6.693-15.457 13.128-23.185 19.563-14.427 11.84-27.823 23.681-40.962 35.522zm115.672 67.44l-71.104-81.855s10.047-10.296 9.532-11.84c0 0 37.098 40.67 71.619 81.34l-10.047 12.355zm17.002-20.592c-37.87-46.333-64.662-82.885-64.92-83.4 2.834 1.802 10.047 8.752 19.064 17.504l41.992 44.016c3.864 4.376 7.214 8.237 9.275 11.069.515.772 1.03 1.287 1.545 2.059l-6.956 8.752zM561.355 7.018c-2.834-3.089-5.925-5.663-8.502-9.01-1.803-2.573-3.091-6.177-4.637-9.266.516-.515.773-1.03 1.288-1.287C555.172-6.11 560.84.583 566.765 7.018a638.516 638.516 0 0 0 18.291 19.048l.773-1.544C577.843 14.482 563.93.068 555.172-11 570.114.583 584.541 9.335 618.547 50.52c-3.865-.515-7.214.257-9.79-1.802-16.745-11.84-32.718-25.483-47.402-41.7zm116.702 291.898l1.803-51.738c24.217-3.09 69.816-22.137 69.816-22.137l-14.685 45.046 36.582 14.93c-88.364 55.856-183.426 38.867-183.426 38.867s10.048-7.722 49.464-11.068c39.158-3.604 40.446-13.9 40.446-13.9zm-570.63-45.818l-1.803 48.65-71.103 22.136 16.745-44.016-40.188-15.444c96.607-58.946 184.714-36.037 184.714-36.037-25.247 10.296-38.128 8.237-63.117 9.524-24.99 1.287-25.247 15.187-25.247 15.187zm120.567 192.025s-23.701 27.285-25.247 19.562c-1.545-7.722 25.247-42.214 25.247-42.214l55.646-67.44c6.183-.773 12.624-1.545 18.806-2.317l-74.452 92.409zm156.118-116.605c-137.054 33.205-210.476 25.226-271.017 14.157l3.092-85.459c28.08 3.347 117.475 28.315 269.47-13.127 151.74-41.443 287.763-35.78 287.763-35.78l-3.092 84.944c-141.176-6.692-286.216 35.265-286.216 35.265zM600.513 465.2L464.49 319.766c6.183-1.03 12.108-2.06 18.033-3.089 57.192 62.035 129.84 139.257 129.84 139.257 0-.258 4.38 17.503-11.85 9.266zm16.23-26.77c-.515.515 11.078 15.444-11.85-5.92-1.546-1.802-55.904-59.718-109.489-118.15 3.607-.514 7.214-1.287 10.82-1.801 49.206 56.114 104.336 119.178 110.52 125.871zM377.414 11.918c-9.79-1.03-81.15 70.272-86.303 80.053 8.76-4.633 84.5-74.905 86.303-80.053zm-12.366 248.9c3.092-.514 6.183-1.03 9.017-1.801-.258 18.533-.258 37.323-.258 55.857-3.091.772-6.183 1.287-9.274 1.801.258-11.84.258-23.938.258-36.036-3.092 7.464-6.441 14.672-9.532 21.88-2.061.257-4.38.771-6.44 1.029-3.35-6.178-6.441-12.356-9.533-18.533 0 12.098-.257 24.196-.257 36.294l-9.275 1.544c.258-18.533.258-37.066.515-55.6l9.275-1.544c4.122 8.237 8.501 16.474 12.623 24.711 4.38-9.781 8.502-19.563 12.881-29.602 0 .258 0 0 0 0zm8.502-1.608c.257-.258.257-.258 0 0 .257-.258.257 0 0 0zm169.514-33.656c.258 19.048.773 38.096 1.546 56.886-3.092.515-6.183.773-9.275 1.288l-.773-37.067c-3.091 7.207-5.925 14.672-9.016 21.88-2.061.257-4.38.772-6.44 1.03-3.092-6.179-6.441-12.614-9.79-19.049 0 12.356.257 24.711.515 37.067l-9.274 1.544c-.258-19.048-.516-37.839-.773-56.887a642.67 642.67 0 0 1 9.016-1.544c4.38 8.494 8.76 17.246 13.139 25.74 4.122-9.78 7.986-19.562 12.108-29.344v-.257c2.834-.515 5.925-.772 9.017-1.287zm14.684-1.545c3.607-.514 7.471-1.03 11.078-1.03 3.864 18.791 7.986 37.582 11.85 56.373l-9.274.772c-1.03-5.406-2.318-10.811-3.349-16.217-2.576.258-4.895.515-7.47.772-.774 5.406-1.804 11.069-2.577 16.732-3.092.257-6.183.772-9.274 1.03 3.091-19.306 5.925-38.869 9.016-58.432zm4.122 31.661c1.546-.257 2.834-.257 4.38-.515-1.03-3.86-1.804-7.722-2.576-11.583-.516 3.861-1.289 7.98-1.804 12.098zm-101.245 34.75c7.471-1.544 14.685-2.831 22.156-3.861v8.494c-10.563 1.802-20.868 3.604-31.43 5.663-.258-18.79-.258-37.58-.515-56.372 10.562-2.059 20.867-4.118 31.172-5.92v8.494c-7.214 1.288-14.427 2.575-21.898 4.119.258 5.406.258 10.554.258 15.702 6.183-1.287 12.366-2.574 18.548-3.604v8.494c-6.182 1.03-12.365 2.06-18.548 3.347.257 5.148.257 10.296.257 15.444zm-254.529 42.987c.516-18.019 1.03-36.294 1.288-54.57 10.563-.515 20.868-1.03 31.43-1.802-.257 2.831-.257 5.405-.257 8.237-7.214.515-14.685 1.03-22.156 1.287 0 5.148-.257 10.039-.257 15.187 6.182-.257 12.623-.515 18.806-1.03-.258 2.832-.258 5.406-.258 8.237-6.183.515-12.623.772-18.806 1.03 0 5.148-.258 10.039-.258 14.93 7.471-.258 14.942-.773 22.413-1.288-.257 2.832-.257 5.406-.257 8.237a652.545 652.545 0 0 1-31.688 1.545zm183.169-77.222c3.864-.772 7.47-1.287 11.077-2.317 3.607 18.019 6.956 36.037 10.563 54.056-3.092.514-6.183 1.287-9.275 1.801a1716.561 1716.561 0 0 0-3.091-15.701c-2.319.515-4.895 1.03-7.471 1.544-1.03 5.663-2.061 11.069-3.092 16.732-3.091.772-6.182 1.287-9.274 1.801 3.607-19.305 6.956-38.61 10.563-57.916zm3.349 30.889c1.545-.258 2.833-.772 4.121-.772-.515-3.862-1.288-7.465-2.06-11.326-.516 4.118-1.289 7.98-2.061 12.098zm49.72-43.502c1.288 1.03 2.577 2.317 4.122 3.346 0 15.96.258 31.919.258 47.878-1.288 1.802-2.576 3.346-3.864 4.89l-27.823 5.406c-.258-18.79-.258-37.324-.258-56.114 9.274-1.802 18.291-3.604 27.565-5.406zm-6.183 49.165c.258-.258.516-.773.773-.773 0-12.612-.257-25.225-.257-37.838l-.773-.772-11.593 2.316c.258 13.128.258 26.256.258 39.383l11.592-2.316zm-183.683-15.702c-.258 15.444-.515 31.146-.773 46.59l22.413-2.316c-.257 2.831-.257 5.405-.257 8.237a659.516 659.516 0 0 1-31.688 3.089c.258-18.276.773-36.552 1.03-54.828l9.275-.772zm354.228-56.515c3.092 0 6.183-.257 9.275 0 .515 19.306 1.288 38.354 1.803 57.659-3.092 0-6.183 0-9.274.257-4.638-11.325-9.275-22.136-13.912-33.205.515 11.069.773 22.394 1.03 33.72l-9.274.772c-.515-19.048-1.03-38.353-1.546-57.401 2.834-.257 5.926-.515 9.017-.772 4.637 10.81 9.274 21.88 13.912 32.948-.258-11.326-.773-22.652-1.03-33.978zM278.23 328.26c.515-18.276.773-36.552.515-54.57 10.563-1.287 20.868-2.832 31.43-4.376v8.237c-7.471 1.03-14.684 2.059-22.155 3.089 0 4.89-.258 10.038-.258 15.187 6.44-.773 12.623-1.545 18.806-2.574v8.237c-6.44.772-12.623 1.801-18.806 2.574 0 7.722-.258 15.444-.258 23.166-3.091.257-6.182.772-9.274 1.03zm-103.048-48.65c7.729 0 15.715 0 24.474.515 1.288 1.287 2.576 2.831 3.864 4.118 0 4.119-.257 7.98-.257 12.098h-9.532c0-2.316.257-4.89.257-7.207l-.773-.772h-10.82l-.773.772c-.257 4.633-.257 9.01-.515 13.643l.773.772h17.26c1.289 1.287 2.32 2.316 3.607 3.346l-.773 23.939c-1.545 1.287-2.833 2.574-4.121 3.86-7.987 0-15.973 0-23.96-.257-1.287-1.544-2.575-2.831-3.864-4.118 0-4.119.258-8.237.258-12.356 3.35 0 6.44.258 9.79.258 0 2.317-.258 4.89-.258 7.207l.773.772h10.82l.773-.772c0-4.633.257-9.009.257-13.642l-.772-.772c-6.183 0-12.366 0-18.55-.258-1.03-1.03-1.802-2.06-2.833-3.089l.773-23.938c1.546-1.288 2.834-2.832 4.122-4.119z" opacity=".03" mask="url(#b)"/></g></svg>