<svg xmlns="http://www.w3.org/2000/svg" viewBox="0 0 24 24"><path d="M23.4 20.3c0-.1-.1-.2-.2-.3l-.7-.4c.1-.4.1-.7 0-1.1l.7-.4c.2-.1.3-.4.2-.7l-1-1.7c-.1-.1-.2-.2-.3-.2-.1 0-.3 0-.4.1l-.7.3c-.3-.2-.6-.4-1-.5v-.8c0-.3-.2-.5-.5-.5h-2c-.3 0-.5.2-.5.5v.8c-.3.1-.7.3-1 .5l-.7-.4c-.1-.1-.3-.1-.4-.1-.1 0-.2.1-.3.2l-1 1.7c-.1.2-.1.5.2.7l.7.4c-.1.4-.1.7 0 1.1l-.6.5c-.1.1-.2.2-.2.3v.4l1 1.7c.1.2.4.3.7.2l.7-.4c.3.2.6.4 1 .5v.8c0 .3.2.5.5.5h2c.3 0 .5-.2.5-.5v-.8c.3-.1.7-.3 1-.5l.7.4c.2.1.5.1.7-.2l1-1.7c-.1-.2 0-.3-.1-.4zm-1.6 1.1l-.6-.3c-.2-.1-.4-.1-.6.1-.3.3-.7.5-1.2.7-.2.1-.4.3-.4.5v.6h-1v-.7c0-.2-.1-.4-.4-.5-.5-.1-.9-.4-1.2-.7-.2-.2-.4-.2-.6-.1l-.6.3-.5-.9.6-.3c.2-.1.3-.3.2-.5-.1-.5-.1-.9 0-1.4.1-.2 0-.4-.2-.5l-.6-.3.5-.9.6.3c.2.1.4.1.6-.1.3-.3.7-.5 1.2-.7.2-.1.4-.3.4-.5V15h1v.7c0 .2.1.4.4.5.5.1.9.4 1.2.7.2.2.4.2.6.1l.6-.3.5.9-.6.3c-.2.1-.3.3-.2.5.1.5.1.9 0 1.4-.1.2 0 .4.2.5l.6.3-.5.8z"/><path d="M18.6 17c-1.1 0-2 .9-2 2s.9 2 2 2 2-.9 2-2-.9-2-2-2zm0 3c-.6 0-1-.4-1-1s.4-1 1-1 1 .4 1 1-.5 1-1 1zm-5-13.6c-.3 0-.5.2-.5.5 0 2-1.1 2.5-1.2 2.5-.2.1-.3.3-.3.5v2.5c0 .2.1.4.3.5.6.2 1.2.4 1.7.6l.9.3c.3.1.5-.1.6-.3.1-.3-.1-.5-.3-.6l-.9-.3c-.4-.1-.9-.3-1.3-.4v-1.8c.4-.5 1.3-1.3 1.4-3.1.2-.1.4-.2.5-.4.2-.3.3-.6.3-1 0-.6-.2-1.1-.6-1.3.3-.6.7-1.7.4-2.8C14.3.5 12.4 0 10.9 0c-1.4 0-3 .4-3.6 1.4-.5 0-.9.1-1.2.4-.7.7-.3 2.1-.1 2.9-.1.1-.2.2-.2.4-.1.2-.1.5-.1.8 0 .6.1 1.1.4 1.3.1 1.8 1 2.7 1.5 3v1.9c-.7.3-1.4.5-2.1.8-2.1.7-3.9 1.3-4.3 2.4-.5 1.5-.6 4.1-.6 4.2 0 .1 0 .3.1.4.1 0 .2.1.4.1h10.5c.3 0 .5-.2.5-.5s-.3-.5-.5-.5h-10c.1-.8.2-2.4.5-3.4.2-.6 2.1-1.3 3.7-1.8.8-.3 1.7-.6 2.5-.9.2-.1.3-.3.3-.5V9.9c0-.2-.1-.4-.3-.5 0 0-1.2-.6-1.2-2.5 0-.2-.1-.4-.3-.5-.1-.2-.1-.8 0-1.1.2-.1.3-.3.3-.5 0-.1 0-.2-.1-.5-.2-.3-.5-1.5-.2-1.8.1-.1.5-.1.7-.1.3.1.5-.1.6-.4.1-.6 1.3-1 2.8-1s2.6.5 2.8 1c.2.8-.2 1.7-.4 2.2-.1.3-.2.4-.2.6 0 .3.2.5.5.5.2 0 .2.3.2.5s-.1.6-.2.6z"/></svg>