<svg xmlns="http://www.w3.org/2000/svg" viewBox="0 0 24 24"><path d="M17.5 11c-3.6 0-6.5 2.9-6.5 6.5s2.9 6.5 6.5 6.5 6.5-2.9 6.5-6.5-2.9-6.5-6.5-6.5zm0 12c-3 0-5.5-2.5-5.5-5.5s2.5-5.5 5.5-5.5 5.5 2.5 5.5 5.5-2.5 5.5-5.5 5.5z"/><path d="M17.5 15.1c.5 0 .9.4.9.9 0 .3.2.5.5.5s.5-.2.5-.5c0-.9-.6-1.6-1.4-1.8v-.5c0-.3-.2-.5-.5-.5s-.5.2-.5.5v.5c-.8.2-1.4.9-1.4 1.8 0 1 .8 1.9 1.9 1.9.5 0 .9.4.9.9s-.4.9-.9.9-.9-.4-.9-.9c0-.3-.2-.5-.5-.5s-.5.2-.5.5c0 .9.6 1.6 1.4 1.8v.5c0 .3.2.5.5.5s.5-.2.5-.5v-.5c.8-.2 1.4-.9 1.4-1.8 0-1-.8-1.9-1.9-1.9-.5 0-.9-.4-.9-.9s.4-.9.9-.9zM3.5 7H8c.3 0 .5-.2.5-.5S8.3 6 8 6H3.5c-.3 0-.5.2-.5.5s.2.5.5.5zM12 9.5c0-.3-.2-.5-.5-.5h-8c-.3 0-.5.2-.5.5s.2.5.5.5h8c.3 0 .5-.2.5-.5zm-2 3c0-.3-.2-.5-.5-.5h-6c-.3 0-.5.2-.5.5s.2.5.5.5h6c.3 0 .5-.2.5-.5zM3.5 15c-.3 0-.5.2-.5.5s.2.5.5.5h5c.3 0 .5-.2.5-.5s-.2-.5-.5-.5h-5z"/><path d="M10.5 21H1V1h10v4.5c0 .3.2.5.5.5H16v3.5c0 .3.2.5.5.5s.5-.2.5-.5V5.3c0-.1-.1-.1-.1-.2l-5-5s-.1-.1-.2-.1H.5C.2 0 0 .2 0 .5v21c0 .3.2.5.5.5h10c.3 0 .5-.2.5-.5s-.2-.5-.5-.5zM12 1.7L15.3 5H12V1.7z"/></svg>