<svg xmlns="http://www.w3.org/2000/svg" viewBox="0 0 24 24"><path d="M23.7 17.3l-.7-.5c.1-.6.1-1.1 0-1.7l.8-.4c.1-.1.2-.2.2-.3 0-.1 0-.3-.1-.4l-1.5-2.6c-.1-.2-.4-.3-.7-.2l-.8.4c-.4-.3-.9-.6-1.4-.8V10c0-.3-.2-.5-.5-.5h-3c-.3 0-.5.2-.5.5v.9c-.5.2-1 .5-1.4.8l-.8-.4c-.2-.1-.5-.1-.7.2L11.1 14c-.1.1-.1.3-.1.4 0 .1.1.2.2.3l.8.4c-.1.6-.1 1.1 0 1.7l-.8.4c-.2.1-.3.4-.2.7l1.5 2.6c.1.2.4.3.7.2l.8-.4c.4.3.9.6 1.4.8v.9c0 .3.2.5.5.5h3c.3 0 .5-.2.5-.5v-.9c.5-.2 1-.5 1.4-.8l.8.4c.2.1.5.1.7-.2l1.5-2.6c.2-.2.2-.5-.1-.6zm-1.8-.3c0 .2 0 .4.2.5l.6.4-1 1.7-.6-.4c-.2-.1-.4-.1-.6.1-.5.4-1 .8-1.7 1-.2.1-.3.3-.3.5v.8h-2v-.8c0-.2-.1-.4-.3-.5-.6-.2-1.2-.5-1.7-1-.2-.1-.4-.2-.6-.1l-.6.4-1-1.7.6-.4c.2-.1.3-.3.2-.5-.2-.7-.2-1.3 0-1.9 0-.2 0-.4-.2-.5l-.6-.4 1-1.7.6.4c.2.1.4.1.6-.1.5-.4 1-.8 1.7-1 .2-.1.3-.3.3-.5v-.8h2v.8c0 .2.1.4.3.5.6.2 1.2.5 1.7 1 .2.1.4.2.6.1l.6-.4 1 1.7-.6.4c-.2.1-.3.3-.2.5.2.6.2 1.2 0 1.9z"/><path d="M17.5 13.5c-1.4 0-2.5 1.1-2.5 2.5s1.1 2.5 2.5 2.5S20 17.4 20 16s-1.1-2.5-2.5-2.5zm0 4c-.8 0-1.5-.7-1.5-1.5s.7-1.5 1.5-1.5 1.5.7 1.5 1.5-.6 1.5-1.5 1.5zM21 3.7v4.8c0 .3.2.5.5.5s.5-.2.5-.5V4c0-1.1-.9-2-2-2H2c-.6 0-1.1.2-1.4.6C.2 3 0 3.5 0 4v11c0 1.1.9 2 2 2h7.5c.3 0 .5-.2.5-.5s-.2-.5-.5-.5H2c-.5 0-1-.4-1-1V4c0-.1 0-.2.1-.3l9.6 7.7c.1.1.2.1.3.1s.2 0 .3-.1L21 3.7zM1.8 3h18.4L11 10.4 1.8 3z"/></svg>