<svg width="24" height="24" viewBox="0 0 24 24" xmlns="http://www.w3.org/2000/svg"><title>Group 24</title><g fill="none" fill-rule="evenodd"><path stroke="#2F2F2F" stroke-linejoin="round" d="M.5 14.5h4v8h-4z"/><path d="M4.5 21c10.729 3.577 6.771 3.613 19-2.5-1.062-1.062-1.902-1.313-3-1l-4.434 1.471" stroke="#2F2F2F" stroke-linecap="round" stroke-linejoin="round"/><path d="M4.5 15.5h3c2.353 0 4 1.5 4.5 2h3c1.594 0 1.594 2 0 2H9.5m4-12h-3v6h10v-6h-4m-7-3h12v3h-12zm6 9v-9m2.844-1.414c-.879.879-2.828 1.414-2.828 1.414s.535-1.949 1.414-2.828c.879-.879 1.377-.744 1.768-.354s.525.889-.354 1.768zm-5.688 0c.879.879 2.828 1.414 2.828 1.414s-.535-1.949-1.414-2.828c-.879-.879-1.377-.744-1.768-.354s-.525.889.354 1.768z" stroke="#2F2F2F" stroke-linecap="round" stroke-linejoin="round"/><path d="M0 0h24v24H0z"/></g></svg>