<svg width="24" height="24" viewBox="0 0 24 24" xmlns="http://www.w3.org/2000/svg"><title>Icons/Black/Health &amp; Fitness</title><g stroke="#2F2F2F" fill="none" fill-rule="evenodd" stroke-linejoin="round"><path d="M13.667 8.215l-5.656 5.657m7.777-3.536l-5.656 5.657m-8.486 0a1.5 1.5 0 0 1 2.121-2.121l6.364 6.363a1.5 1.5 0 1 1-2.12 2.121l-6.365-6.363z"/><path d="M2.353 12.458a1.501 1.501 0 0 1 2.122-2.122l9.192 9.192c.587.586.587 1.535.001 2.121a1.503 1.503 0 0 1-2.123.001l-9.192-9.192zm7.778-7.778a1.501 1.501 0 0 1 2.122-2.122l9.191 9.193a1.5 1.5 0 1 1-2.121 2.121L10.131 4.68zM.939 19.528a1.5 1.5 0 1 1 2.121-2.121l3.537 3.535a1.501 1.501 0 0 1-2.122 2.122L.939 19.528z"/><path d="M13.668 3.972a1.5 1.5 0 1 1 2.121-2.121l6.362 6.364a1.5 1.5 0 0 1-2.121 2.122l-6.362-6.365z"/><path d="M17.204 3.265a1.5 1.5 0 1 1 2.12-2.121L22.86 4.68a1.501 1.501 0 0 1-2.122 2.121l-3.534-3.536z"/></g></svg>