<svg width="24" height="24" viewBox="0 0 24 24" xmlns="http://www.w3.org/2000/svg"><title>Icons/Black/Mindset</title><g fill="none" fill-rule="evenodd"><path d="M20.659 7.906C20.659 2.875 15.908 0 11.596 0 6.237 0 2 4.203 2 9.562c0 3.043.904 5.898 3.904 7.678V23h10v-3.476c2 .01 3.113-.135 3.815-.837.898-.898.86-4.688.86-4.688s.877.032 1.522.006c.647-.028.661-.428.697-.937.115-1.605-2.139-4.36-2.139-5.162z" stroke="#2F2F2F" stroke-linejoin="round"/><path d="M8.913 6.838c-1.082 1.275-1.654 2.95.926 4.076 1.181 2.637 2.978 1.661 4.172.253 1.195-1.408 1.652-5.177.6-7.167-1.94 1.642-4.345 1.245-5.698 2.838zM8 15.661S9.057 10.762 13.236 7" stroke="#2F2F2F" stroke-linecap="round" stroke-linejoin="round"/><path d="M0 0h24v24H0z"/></g></svg>