<svg width="24" height="24" viewBox="0 0 24 24" xmlns="http://www.w3.org/2000/svg"><title>Icons/Black/Money</title><g fill="none" fill-rule="evenodd"><circle stroke="#2F2F2F" stroke-linecap="round" stroke-linejoin="round" cx="17" cy="14" r=".5"/><path d="M4.5 7.5h1m2 0h1m2 0h1m2 0h1m2 0h1m-13 13h1m2 0h1m2 0h1m2 0h1m2 0h1m5.998-6c0 1.1-.899 2-2 2h-5c-1.1 0-2-.9-2-2v-1c0-1.1.9-2 2-2h5c1.101 0 2 .9 2 2v1z" stroke="#2F2F2F" stroke-linecap="round" stroke-linejoin="round"/><path d="M20.5 11.5v-3c0-1.65-1.351-3-3-3h-14m12-2h-12c-1.323 0-1.321 2 0 2" stroke="#2F2F2F" stroke-linecap="round" stroke-linejoin="round"/><path d="M20.5 16.5v3c0 1.65-1.351 3-3 3h-14c-1.65 0-3-1.35-3-3v-15c0-1.65 1.35-3 3-3h12c1.649 0 3 .9 3 2v2" stroke="#2F2F2F" stroke-linecap="round" stroke-linejoin="round"/><path d="M0 0h24v24H0z"/></g></svg>