<svg xmlns="http://www.w3.org/2000/svg" viewBox="0 0 24 24"><path d="M12 24c-.3 0-.5-.2-.5-.5s.3-.5.6-.5c2.4 0 4.7-.8 6.6-2.3.2-.2.5-.1.7.1.2.2.1.5-.1.7-2.1 1.6-4.6 2.5-7.3 2.5zm-2.8-.4h-.1c-2.5-.6-4.8-2.1-6.5-4.2-.2-.2-.1-.5.1-.7.2-.2.5-.1.7.1C4.9 20.7 7 22 9.3 22.6c.3.1.4.3.4.6-.1.3-.3.4-.5.4zM21 19.7c-.1 0-.2 0-.3-.1-.2-.2-.2-.5-.1-.7 1.5-1.9 2.3-4.2 2.4-6.6 0-.3.2-.5.5-.5s.5.2.5.5c-.1 2.7-1 5.2-2.6 7.2-.1.1-.3.2-.4.2zM1.5 17.2c-.2 0-.4-.1-.5-.3-.6-1.5-1-3.2-1-4.9 0-.9.1-1.8.3-2.7.1-.3.3-.4.6-.4.3.1.4.4.4.6-.2.8-.3 1.7-.3 2.5 0 1.6.3 3.1 1 4.5.1.3 0 .5-.2.7h-.3zM23.2 10c-.2 0-.4-.2-.5-.4-.5-2.3-1.8-4.5-3.7-6-.2-.2-.2-.5-.1-.7.2-.2.5-.2.7-.1 2 1.7 3.4 4 4 6.6.1.3-.1.5-.4.6.1-.1.1 0 0 0zM1.8 7.3c-.1 0-.2 0-.2-.1-.3-.1-.4-.4-.3-.7 1.2-2.3 3.1-4.2 5.5-5.4.2-.1.5 0 .7.2s0 .5-.2.7c-2.2 1-4 2.8-5 4.9-.2.3-.4.4-.5.4zM17 2.1c-.1 0-.1 0-.2-.1-2.2-1-4.6-1.4-7-.9-.3.2-.5 0-.6-.3 0-.2.1-.5.4-.6 2.6-.5 5.3-.2 7.6 1 .2.1.4.4.2.7 0 .1-.2.2-.4.2zM12 4c-4.4 0-8 3.6-8 8s3.6 8 8 8 8-3.6 8-8-3.6-8-8-8zm0 15c-3.9 0-7-3.1-7-7s3.1-7 7-7 7 3.1 7 7-3.1 7-7 7z"/><path d="M16.2 11.6L9.7 8.1c-.1-.1-.3-.1-.5 0-.1.1-.2.2-.2.4v7c0 .2.1.3.2.4.1.1.2.1.3.1.1 0 .2 0 .2-.1l6.5-3.5c.2-.1.3-.3.3-.4s-.1-.4-.3-.4zM10 14.7V9.3l4.9 2.7-4.9 2.7z"/></svg>