<svg width="21" height="23" viewBox="0 0 21 23" xmlns="http://www.w3.org/2000/svg"><title>loading 2.3.3.1</title><g fill="none" fill-rule="evenodd"><path d="M10.5 20v2m9.5-9.5h-2M10.5 1v4M7.439 19.391l-.766 1.847m6.89-1.847l.763 1.847M3 12.5H1m18.276-3.636l-1.847.766M3.57 15.37l-1.847.766m14.08 1.668l1.414 1.414m0-13.436l-1.414 1.414m-1.668-3.473l-.766 1.848M6.863 3.724l.767 1.847m-3.848.211l1.414 1.414m0 10.608l-1.414 1.414m13.647-3.848l1.847.766M1.723 8.864l1.847.766" stroke-linecap="round" stroke="#000" stroke-linejoin="round"/><path d="M-1 0h24v24H-1z"/></g></svg>