<svg width="24" height="24" viewBox="0 0 24 24" xmlns="http://www.w3.org/2000/svg"><title>Icons/Black/Relationships</title><g fill="none" fill-rule="evenodd"><path d="M12.576 9.752c-.856-1.34-3.427-.861-3.427 1.531.054 2.178 3.427 3.827 3.427 3.827s3.373-1.649 3.427-3.827c0-2.392-2.569-2.871-3.427-1.531zM.5 15.5h4v7h-4z" stroke="#2F2F2F" stroke-linejoin="round"/><path d="M4.5 21.062c10.5 3.5 7 3.5 19-2.5-1.063-1.062-1.902-1.313-3-1l-4.434 1.471" stroke="#2F2F2F" stroke-linecap="round" stroke-linejoin="round"/><path d="M4.5 16.5h3c2.353 0 4 1.5 4.5 2h3c1.594 0 1.594 2 0 2H9.5" stroke="#2F2F2F" stroke-linecap="round" stroke-linejoin="round"/><path stroke="#2F2F2F" stroke-linejoin="round" d="M19.5 1.5h4v7h-4z"/><path d="M19.5 7.5h-3c-2.353 0-4-1.5-4.5-2H9c-1.594 0-1.594-2 0-2h5.5" stroke="#2F2F2F" stroke-linecap="round" stroke-linejoin="round"/><path d="M19.5 2.875c-10.5-3.5-7-3.5-19 2.5 1.062 1.062 1.902 1.313 3 1L7.91 4.91" stroke="#2F2F2F" stroke-linecap="round" stroke-linejoin="round"/><path d="M0 0h24v24H0z"/></g></svg>