<svg width="24" height="24" viewBox="0 0 24 24" xmlns="http://www.w3.org/2000/svg"><title>Icons/Black/Reward</title><g fill="none" fill-rule="evenodd"><path d="M.5 10.5h7v5c0 1.1-.9 2-2 2v6h-3v-6c-1.101 0-2-.9-2-2v-5zm6-4.5a2.5 2.5 0 1 1-5 0 2.5 2.5 0 1 1 5 0zm4 12.5h11v5h-11zm0 3h11m-2-3V17s-2.5-.5-2.5-3.5c0-3.5 4 1 4-10H11c0 11 4 6.5 4 10 0 3-2.5 3.5-2.5 3.5v1.5h7z" stroke="#2F2F2F" stroke-linejoin="round"/><path d="M11 4.5H8.5s0 5 3.5 5m9-5h2.5s0 5-3.5 5" stroke="#2F2F2F" stroke-linejoin="round"/><path d="M0 0h24v24H0z"/></g></svg>