<svg xmlns="http://www.w3.org/2000/svg" width="24" height="24" viewBox="0 0 24 24"><path fill="#2F2F2F" d="M22.5 0h-21C1.094 0 .742.148.445.445A1.442 1.442 0 0 0 0 1.5v21c0 .406.148.758.445 1.055.297.297.649.445 1.055.445h21c.406 0 .758-.148 1.055-.445.297-.297.445-.649.445-1.055v-21c0-.406-.148-.758-.445-1.055A1.442 1.442 0 0 0 22.5 0zm-9.234 16.031c-.282 0-.547-.039-.797-.117a2.324 2.324 0 0 1-.586-.258 13.6 13.6 0 0 0-.61-.375 6.782 6.782 0 0 1-.585-.375c-.313 1.531-.68 2.79-1.102 3.774-.422.984-1.055 1.758-1.899 2.32a31.404 31.404 0 0 1-.093-2.156c0-.563.07-1.219.21-1.969.141-.75.282-1.367.423-1.852l.515-1.78c.203-.704.352-1.306.445-1.806-.312-.624-.437-1.32-.374-2.085.062-.766.367-1.399.914-1.899.546-.5 1.195-.625 1.945-.375.5.188.781.547.844 1.078.062.531-.024 1.102-.258 1.711a28.17 28.17 0 0 0-.633 1.828c-.188.61-.21 1.149-.07 1.617.14.47.539.766 1.195.891.906.188 1.695-.039 2.367-.68a5.138 5.138 0 0 0 1.406-2.367 7.254 7.254 0 0 0 .211-2.906c-.125-1-.468-1.766-1.03-2.297-.782-.781-1.75-1.21-2.907-1.289-1.156-.078-2.203.117-3.14.586-.938.469-1.712 1.172-2.321 2.11a4.124 4.124 0 0 0-.633 3.046c.063.25.164.5.305.75.14.25.265.453.375.61.11.156.164.382.164.68 0 .296-.11.617-.328.96C5.312 13 4.406 11.625 4.5 9.281c.063-1.656.742-3.062 2.04-4.219 1.296-1.156 2.788-1.828 4.476-2.015 2.125-.219 3.992.125 5.601 1.031 1.61.906 2.54 2.219 2.79 3.938.312 2.125-.118 4.03-1.29 5.718-1.172 1.688-2.789 2.454-4.851 2.297z"/></svg>