<svg xmlns="http://www.w3.org/2000/svg" width="24" height="24" viewBox="0 0 24 24"><path fill="#2F2F2F" d="M22.5 0h-21C1.094 0 .742.148.445.445A1.442 1.442 0 0 0 0 1.5v21c0 .406.148.758.445 1.055.297.297.649.445 1.055.445h21c.406 0 .758-.148 1.055-.445.297-.297.445-.649.445-1.055v-21c0-.406-.148-.758-.445-1.055A1.442 1.442 0 0 0 22.5 0zm-6 7.5H15c-.688 0-1.11.14-1.266.422-.156.281-.234 1.14-.234 2.578h3v3h-3v6h-3v-6h-3v-3h3c0-.813.031-1.469.094-1.969.062-.5.219-1.11.469-1.828a2.943 2.943 0 0 1 1.359-1.64C13.078 4.688 13.937 4.5 15 4.5h1.5v3z"/></svg>