<?xml version="1.0" encoding="utf-8"?>
<!-- Generator: Adobe Illustrator 21.0.2, SVG Export Plug-In . SVG Version: 6.00 Build 0)  -->
<svg version="1.1" id="Layer_1" xmlns="http://www.w3.org/2000/svg" xmlns:xlink="http://www.w3.org/1999/xlink" x="0px" y="0px"
	 viewBox="0 0 24 24" style="enable-background:new 0 0 24 24;" xml:space="preserve">
<g>
	<path d="M10.7,12.3c-0.1-0.1-0.4-0.1-0.5,0L7.4,15c-0.1,0.1-0.1,0.4,0,0.5l1.1,1.1c0.1,0.1,0.4,0.1,0.5,0l2.7-2.7
		c0.1-0.1,0.1-0.4,0-0.5L10.7,12.3z"/>
	<path d="M15.5,7.4c-0.1-0.1-0.4-0.1-0.5,0l-2.7,2.7c-0.1,0.1-0.1,0.4,0,0.5l1.1,1.1c0.1,0.1,0.4,0.1,0.5,0L16.6,9
		c0.1-0.1,0.1-0.4,0-0.5L15.5,7.4z"/>
	<path d="M23.6,0.4C23.3,0.2,22.9,0,22.5,0h-21C1.1,0,0.7,0.1,0.4,0.4C0.2,0.7,0,1.1,0,1.5v21c0,0.4,0.1,0.8,0.4,1.1S1.1,24,1.5,24
		h21c0.4,0,0.8-0.1,1.1-0.4s0.4-0.6,0.4-1.1v-21C24,1.1,23.9,0.7,23.6,0.4z M18.2,10.7l-2.7,2.7c-0.4,0.4-0.9,0.6-1.4,0.7
		c-0.1,0.5-0.3,1-0.7,1.4l-2.7,2.7c-1,1-2.7,1-3.8,0l-1.1-1.1c-1-1-1-2.7,0-3.8l2.7-2.7c0.4-0.4,0.9-0.6,1.4-0.7
		c0.1-0.5,0.3-1,0.7-1.4l2.7-2.7c1-1,2.7-1,3.8,0l1.1,1.1C19.2,7.9,19.2,9.6,18.2,10.7z"/>
</g>
</svg>
