<svg xmlns="http://www.w3.org/2000/svg" width="24" height="24" viewBox="0 0 24 24"><path fill="#2F2F2F" d="M22.5 0h-21C1.094 0 .742.148.445.445A1.442 1.442 0 0 0 0 1.5v21c0 .406.148.758.445 1.055.297.297.649.445 1.055.445h21c.406 0 .758-.148 1.055-.445.297-.297.445-.649.445-1.055v-21c0-.406-.148-.758-.445-1.055A1.442 1.442 0 0 0 22.5 0zM18 9v.375a8.9 8.9 0 0 1-.96 4.031c-.642 1.281-1.634 2.367-2.977 3.258-1.344.89-2.907 1.336-4.688 1.336-1.656 0-3.203-.453-4.64-1.36.25.032.5.047.75.047 1.406 0 2.671-.437 3.796-1.312a2.835 2.835 0 0 1-1.758-.586 2.914 2.914 0 0 1-1.054-1.523c.187.062.406.093.656.093.375 0 .703-.046.984-.14-.687-.125-1.21-.461-1.57-1.008C6.18 11.664 6 11.016 6 10.266v-.047c0 .219.344.344 1.031.375C5.906 9.844 5.344 9 5.344 8.063c0-.532.14-1.032.422-1.5C7.39 8.53 9.469 9.578 12 9.703a2.379 2.379 0 0 1-.094-.656c0-.844.297-1.563.89-2.156A2.937 2.937 0 0 1 14.954 6c.875 0 1.61.313 2.203.938a5.919 5.919 0 0 0 1.922-.704 2.936 2.936 0 0 1-1.312 1.688 6.907 6.907 0 0 0 1.734-.516A6.074 6.074 0 0 1 18 9z"/></svg>