<svg xmlns="http://www.w3.org/2000/svg" width="24" height="24" viewBox="0 0 24 24"><path fill="#2F2F2F" d="M3 0H1.5C1.094 0 .742.148.445.445A1.442 1.442 0 0 0 0 1.5v21c0 .406.148.758.445 1.055.297.297.649.445 1.055.445h21c.406 0 .758-.148 1.055-.445.297-.297.445-.649.445-1.055v-21c0-.406-.148-.758-.445-1.055A1.442 1.442 0 0 0 22.5 0H3zm9 9c.813 0 1.516.297 2.11.89.593.594.89 1.297.89 2.11s-.297 1.516-.89 2.11c-.594.593-1.297.89-2.11.89s-1.516-.297-2.11-.89C9.298 13.515 9 12.812 9 12s.297-1.516.89-2.11C10.485 9.298 11.188 9 12 9zm9 12H3v-9h3c0 1.656.586 3.07 1.758 4.242C8.93 17.414 10.344 18 12 18c1.656 0 3.07-.586 4.242-1.758C17.414 15.07 18 13.656 18 12h3v9zm0-13.5h-4.5V3H21v4.5z"/></svg>