<?xml version="1.0" encoding="utf-8"?>
<!-- Generator: Adobe Illustrator 21.0.2, SVG Export Plug-In . SVG Version: 6.00 Build 0)  -->
<svg version="1.1" id="Layer_1" xmlns="http://www.w3.org/2000/svg" xmlns:xlink="http://www.w3.org/1999/xlink" x="0px" y="0px"
	 viewBox="0 0 24 24" style="enable-background:new 0 0 24 24;" xml:space="preserve">
<path d="M12.1,5L12.1,5C12.1,5,12.1,5,12.1,5c-0.1,0-0.3,0-0.3,0c-0.3,0-0.9,0-1.6,0.4c-0.4,0.2-0.7,0.4-1,0.7
	C8.9,6.4,8.6,6.9,8.4,7.4c-0.3,0.7-0.2,2-0.2,3l0,0c0,0.1,0,0.2,0,0.3c0,0-0.1,0-0.2,0c-0.2,0-0.4-0.1-0.6-0.2
	c-0.1,0-0.1-0.1-0.2-0.1c-0.1,0-0.3,0-0.4,0.1c-0.2,0.1-0.3,0.2-0.3,0.4c0,0.1,0,0.3,0.2,0.5c0.1,0.1,0.3,0.2,0.5,0.3
	c0.1,0,0.1,0,0.2,0.1c0.3,0.1,0.7,0.2,0.8,0.5c0.1,0.1,0,0.3-0.1,0.5c0,0,0,0,0,0c0,0.1-0.2,0.6-0.7,1.2c-0.3,0.3-0.5,0.6-0.9,0.8
	c-0.4,0.3-0.8,0.4-1.2,0.5c-0.2,0-0.3,0.2-0.3,0.4c0,0.1,0,0.1,0,0.2c0,0,0,0,0,0c0.1,0.2,0.2,0.3,0.5,0.4c0.3,0.2,0.8,0.3,1.4,0.4
	c0,0.1,0.1,0.2,0.1,0.3c0,0.1,0,0.2,0.1,0.4c0,0.1,0.1,0.3,0.4,0.3c0.1,0,0.2,0,0.3,0c0.2,0,0.4-0.1,0.7-0.1c0.2,0,0.3,0,0.5,0
	c0.3,0.1,0.6,0.3,1,0.5c0.5,0.4,1.1,0.8,1.9,0.8c0,0,0,0,0.1,0c0,0,0.1,0,0.1,0c0.9,0,1.4-0.4,1.9-0.8l0,0c0.3-0.3,0.6-0.5,1-0.5
	c0.2,0,0.4,0,0.5,0c0.3,0,0.5,0,0.7,0.1c0.1,0,0.2,0,0.3,0l0,0h0c0.2,0,0.3-0.1,0.4-0.3c0-0.1,0.1-0.2,0.1-0.3
	c0-0.1,0.1-0.3,0.1-0.3c0.6-0.1,1.1-0.2,1.4-0.4c0.3-0.1,0.4-0.3,0.5-0.4c0,0,0-0.1,0-0.2c0-0.2-0.1-0.3-0.3-0.4
	C16.9,15.1,16,13.1,16,13c0,0,0,0,0,0c-0.1-0.2-0.1-0.4-0.1-0.5c0.1-0.3,0.5-0.4,0.8-0.5c0.1,0,0.1,0,0.2-0.1
	c0.3-0.1,0.4-0.2,0.6-0.4c0.1-0.2,0.2-0.3,0.2-0.4c0-0.2-0.2-0.5-0.4-0.6c-0.1,0-0.2-0.1-0.3-0.1c-0.1,0-0.2,0-0.3,0.1
	c-0.2,0.1-0.4,0.2-0.6,0.2c-0.1,0-0.2,0-0.2,0c0-0.1,0-0.2,0-0.3l0,0c0.1-1,0.1-2.3-0.2-3c-0.2-0.5-0.5-1-0.9-1.3
	c-0.3-0.3-0.6-0.5-1-0.7C13.1,5,12.4,5,12.1,5z M22.5,0c0.4,0,0.8,0.2,1.1,0.4C23.9,0.7,24,1.1,24,1.5v21c0,0.4-0.1,0.8-0.4,1.1
	c-0.3,0.3-0.6,0.4-1.1,0.4h-21c-0.4,0-0.8-0.1-1.1-0.4C0.1,23.3,0,22.9,0,22.5v-21c0-0.4,0.2-0.8,0.4-1.1C0.7,0.1,1.1,0,1.5,0H22.5z
	"/>
</svg>
