<svg width="24" height="24" viewBox="0 0 24 24" xmlns="http://www.w3.org/2000/svg"><title>Icons/Black/Thumbs Up</title><g fill="none" fill-rule="evenodd"><path d="M20 15a1.5 1.5 0 0 1 0 3h-1a1.5 1.5 0 0 1 1.5 1.5c0 .829-.672 1-1.5 1h-6.5c-2.851 0-3.5-.5-7-1V11C7.95 11 12 6.5 12 2.5c0-1.581 2.188-2.17 3 .719C15.5 5 14 8.5 14 8.5h8a1.5 1.5 0 0 1 1.5 1.5c0 .829-.672 2-1.5 2h-1a1.5 1.5 0 0 1 0 3h-1M.5 9.5h5v12h-5z" stroke="#2F2F2F" stroke-linecap="round" stroke-linejoin="round"/><path d="M4 4h16v16H4z"/></g></svg>