<svg width="24" height="24" viewBox="0 0 24 24" xmlns="http://www.w3.org/2000/svg"><title>Icons/Black/Users</title><g fill="none" fill-rule="evenodd"><path d="M7.919 21.5H15.5V17c0-.5-3-2-5.5-3v-2s1-.35 1-2.5c.695 0 1-2 .032-2 0-.212.766-1.308.468-2.5-.5-2-5.5-2-6 0C3.395 4.569 5 7.212 5 7.5c-1 0-.696 2 0 2C5 11.65 6 12 6 12v2C3.5 15 .5 16.5.5 17v4.5h7.419z" stroke="#2F2F2F" stroke-linejoin="round"/><path d="M18 21.5h5.5V17c0-.5-2.5-1.2-4.5-2v-1.5s1-.28 1-2c.557 0 .774-2 0-2 0-.169.811-1.067.5-2-.5-1.5-4.5-1.5-5 0-1.685-.345-.5 1.77-.5 2-.8 0-.557 2 0 2 0 1.72 1 2 1 2v1" stroke="#2F2F2F" stroke-linecap="round" stroke-linejoin="round"/><path d="M0 0h24v24H0z"/></g></svg>