<?xml version="1.0" encoding="UTF-8"?>
<svg width="24px" height="24px" viewBox="0 0 24 24" version="1.1" xmlns="http://www.w3.org/2000/svg" xmlns:xlink="http://www.w3.org/1999/xlink">
    <!-- Generator: Sketch 43.2 (39069) - http://www.bohemiancoding.com/sketch -->
    <title>fill/white</title>
    <desc>Created with Sketch.</desc>
    <defs>
        <path d="M7.35714286,14.7142857 C6.24374758,14.7142857 5.57142857,15.2745516 5.57142857,16.5 C5.57142857,17.7254484 6.24374758,18.2857143 7.35714286,18.2857143 C8.7965768,18.2857143 9.14285714,18.1702875 9.14285714,17.6428571 L9.14285714,14.7142857 L7.35714286,14.7142857 Z M14.2142857,12.4285714 C13.1008904,12.4285714 12.4285714,12.9888373 12.4285714,14.2142857 C12.4285714,15.4397342 13.1008904,16 14.2142857,16 C15.6537197,16 16,15.8845732 16,15.3571429 L16,12.4285714 L14.2142857,12.4285714 Z M9.14285714,13.7142857 L9.14285714,8.5 C9.14285714,8.33282341 9.22640771,8.17670774 9.36550704,8.08397485 L16.2226499,3.51254628 C16.5549273,3.29102804 17,3.52922374 17,3.92857143 L17,11.9285714 L17,15.3571429 C17,16.7344744 16.2034232,17 14.2142857,17 C12.5848239,17 11.4285714,16.0364563 11.4285714,14.2142857 C11.4285714,12.3921151 12.5848239,11.4285714 14.2142857,11.4285714 L16,11.4285714 L16,4.86282997 L10.1428571,8.76759188 L10.1428571,14.2142857 L10.1428571,17.6428571 C10.1428571,19.0201887 9.34628034,19.2857143 7.35714286,19.2857143 C5.727681,19.2857143 4.57142857,18.3221706 4.57142857,16.5 C4.57142857,14.6778294 5.727681,13.7142857 7.35714286,13.7142857 L9.14285714,13.7142857 Z M1,22.8571429 L22.8571429,22.8571429 L22.8571429,1 L1,1 L1,22.8571429 Z M0.5,0 L23.3571429,0 C23.6332852,0 23.8571429,0.223857625 23.8571429,0.5 L23.8571429,23.3571429 C23.8571429,23.6332852 23.6332852,23.8571429 23.3571429,23.8571429 L0.5,23.8571429 C0.223857625,23.8571429 0,23.6332852 0,23.3571429 L0,0.5 C0,0.223857625 0.223857625,0 0.5,0 Z" id="path-1"></path>
    </defs>
    <g id="_Identity" stroke="none" stroke-width="1" fill="none" fill-rule="evenodd">
        <g id="icon/single">
            <g id="fill/white">
                <mask id="mask-2" fill="white">
                    <use xlink:href="#path-1"></use>
                </mask>
                <use id="Mask" fill="#000000" xlink:href="#path-1"></use>
                <g mask="url(#mask-2)" id="stats-bg" fill="#FFFFFF">
                    <rect x="0" y="0" width="24" height="24"></rect>
                </g>
            </g>
        </g>
    </g>
</svg>